<svg xmlns="http://www.w3.org/2000/svg" xmlns:xlink="http://www.w3.org/1999/xlink" id="Logo_Outline_Background" data-name="Logo_Outline/Background" viewBox="0 0 300 51.35">
  <defs>
    <linearGradient id="Front_Face_Gradient" x1="150.01" x2="150.01" y1="2.37" y2="37.66" gradientUnits="userSpaceOnUse">
      <stop offset="0" stop-color="#d0c5c0"/>
      <stop offset=".99" stop-color="#aba09c"/>
    </linearGradient>
    <linearGradient id="Crack_Highlight_Gradient" x1="141.79" x2="141.79" y1="7.35" y2="37.4" gradientUnits="userSpaceOnUse">
      <stop offset="0" stop-color="#ede5e2"/>
      <stop offset="1" stop-color="#d0c5c0"/>
    </linearGradient>
    <linearGradient xlink:href="#Crack_Highlight_Gradient" id="Crack_Highlight_Gradient-2" x1="75.18" x2="75.18" y1="7.35" y2="37.4"/>
    <linearGradient xlink:href="#Crack_Highlight_Gradient" id="Crack_Highlight_Gradient-3" x1="91.83" x2="91.83" y1="7.35" y2="37.4"/>
    <linearGradient xlink:href="#Crack_Highlight_Gradient" id="Crack_Highlight_Gradient-4" x1="287.49" x2="287.49" y1="7.35" y2="37.4"/>
    <linearGradient xlink:href="#Crack_Highlight_Gradient" id="Crack_Highlight_Gradient-5" x1="9.43" x2="9.43" y1="7.34" y2="37.4"/>
    <linearGradient xlink:href="#Crack_Highlight_Gradient" id="Crack_Highlight_Gradient-6" x1="13.73" x2="13.73" y1="7.34" y2="37.4"/>
    <linearGradient xlink:href="#Crack_Highlight_Gradient" id="Crack_Highlight_Gradient-7" x1="14.81" x2="14.81" y1="7.35" y2="37.4"/>
    <linearGradient xlink:href="#Crack_Highlight_Gradient" id="Crack_Highlight_Gradient-8" x1="26.34" x2="26.34" y1="7.35" y2="37.4"/>
    <linearGradient xlink:href="#Crack_Highlight_Gradient" id="Crack_Highlight_Gradient-9" x1="39.25" x2="39.25" y1="7.35" y2="37.4"/>
    <linearGradient xlink:href="#Crack_Highlight_Gradient" id="Crack_Highlight_Gradient-10" x1="56.4" x2="56.4" y1="7.35" y2="37.4"/>
    <linearGradient xlink:href="#Crack_Highlight_Gradient" id="Crack_Highlight_Gradient-11" x1="72.55" x2="72.55" y1="7.35" y2="37.4"/>
    <linearGradient xlink:href="#Crack_Highlight_Gradient" id="Crack_Highlight_Gradient-12" x1="108.95" x2="108.95" y1="7.4" y2="37.37"/>
    <linearGradient xlink:href="#Crack_Highlight_Gradient" id="Crack_Highlight_Gradient-13" x1="127.57" x2="127.57" y1="7.35" y2="37.4"/>
    <linearGradient xlink:href="#Crack_Highlight_Gradient" id="Crack_Highlight_Gradient-14" x1="182.87" x2="182.87" y1="7.35" y2="37.4"/>
    <linearGradient xlink:href="#Crack_Highlight_Gradient" id="Crack_Highlight_Gradient-15" x1="191.93" x2="191.93" y1="7.35" y2="37.4"/>
    <linearGradient xlink:href="#Crack_Highlight_Gradient" id="Crack_Highlight_Gradient-16" x1="214.87" x2="214.87" y1="7.35" y2="37.4"/>
    <linearGradient xlink:href="#Crack_Highlight_Gradient" id="Crack_Highlight_Gradient-17" x1="229.79" x2="229.79" y1="7.35" y2="37.4"/>
    <linearGradient xlink:href="#Crack_Highlight_Gradient" id="Crack_Highlight_Gradient-18" x1="211.08" x2="211.08" y1="7.34" y2="37.4"/>
    <linearGradient xlink:href="#Crack_Highlight_Gradient" id="Crack_Highlight_Gradient-19" x1="218.18" x2="218.18" y1="7.34" y2="37.4"/>
    <linearGradient xlink:href="#Crack_Highlight_Gradient" id="Crack_Highlight_Gradient-20" x1="230.96" x2="230.96" y1="7.35" y2="37.4"/>
    <linearGradient xlink:href="#Crack_Highlight_Gradient" id="Crack_Highlight_Gradient-21" x1="248.01" x2="248.01" y1="7.35" y2="37.4"/>
    <linearGradient xlink:href="#Crack_Highlight_Gradient" id="Crack_Highlight_Gradient-22" x1="290.61" x2="290.61" y1="7.35" y2="37.4"/>
    <linearGradient xlink:href="#Crack_Highlight_Gradient" id="Crack_Highlight_Gradient-23" x1="177" x2="177" y1="7.35" y2="37.4"/>
    <linearGradient xlink:href="#Crack_Highlight_Gradient" id="Crack_Highlight_Gradient-24" x1="184.1" x2="184.1" y1="7.34" y2="37.4"/>
    <linearGradient xlink:href="#Crack_Highlight_Gradient" id="Crack_Highlight_Gradient-25" x1="145.75" x2="145.75" y1="7.35" y2="37.4"/>
    <linearGradient xlink:href="#Crack_Highlight_Gradient" id="Crack_Highlight_Gradient-26" x1="161.38" x2="161.38" y1="7.35" y2="37.4"/>
    <linearGradient xlink:href="#Crack_Highlight_Gradient" id="Crack_Highlight_Gradient-27" x1="196.88" x2="196.88" y1="7.35" y2="37.4"/>
    <linearGradient xlink:href="#Crack_Highlight_Gradient" id="Crack_Highlight_Gradient-28" x1="107.41" x2="107.41" y1="7.35" y2="37.4"/>
    <linearGradient xlink:href="#Crack_Highlight_Gradient" id="Crack_Highlight_Gradient-29" x1="118.06" x2="118.06" y1="7.35" y2="37.4"/>
    <linearGradient xlink:href="#Crack_Highlight_Gradient" id="Crack_Highlight_Gradient-30" x1="130.84" x2="130.84" y1="7.35" y2="37.4"/>
    <linearGradient xlink:href="#Crack_Highlight_Gradient" id="Crack_Highlight_Gradient-31" x1="91.79" x2="91.79" y1="7.35" y2="37.4"/>
    <linearGradient xlink:href="#Crack_Highlight_Gradient" id="Crack_Highlight_Gradient-32" x1="98.89" x2="98.89" y1="7.35" y2="37.4"/>
    <linearGradient xlink:href="#Crack_Highlight_Gradient" id="Crack_Highlight_Gradient-33" x1="69.07" x2="69.07" y1="7.35" y2="37.4"/>
    <linearGradient xlink:href="#Crack_Highlight_Gradient" id="Crack_Highlight_Gradient-34" x1="76.17" x2="76.17" y1="7.35" y2="37.4"/>
    <linearGradient xlink:href="#Crack_Highlight_Gradient" id="Crack_Highlight_Gradient-35" x1="52.03" x2="52.03" y1="7.35" y2="37.4"/>
    <linearGradient xlink:href="#Crack_Highlight_Gradient" id="Crack_Highlight_Gradient-36" x1="59.13" x2="59.13" y1="7.35" y2="37.4"/>
    <linearGradient xlink:href="#Crack_Highlight_Gradient" id="Crack_Highlight_Gradient-37" x1="207.58" x2="207.58" y1="7.4" y2="37.31"/>
    <linearGradient xlink:href="#Crack_Highlight_Gradient" id="Crack_Highlight_Gradient-38" x1="84.57" x2="84.57" y1="7.35" y2="37.4"/>
    <linearGradient xlink:href="#Crack_Highlight_Gradient" id="Crack_Highlight_Gradient-39" x1="18.26" x2="18.26" y1="7.35" y2="37.4"/>
    <linearGradient xlink:href="#Crack_Highlight_Gradient" id="Crack_Highlight_Gradient-40" x1="42.93" x2="42.93" y1="7.35" y2="37.4"/>
    <linearGradient xlink:href="#Crack_Highlight_Gradient" id="Crack_Highlight_Gradient-41" x1="47.37" x2="47.37" y1="7.35" y2="37.4"/>
    <linearGradient xlink:href="#Crack_Highlight_Gradient" id="Crack_Highlight_Gradient-42" x1="38.57" x2="38.57" y1="7.35" y2="37.4"/>
    <linearGradient xlink:href="#Crack_Highlight_Gradient" id="Crack_Highlight_Gradient-43" x1="65.6" x2="65.6" y1="7.35" y2="37.4"/>
    <linearGradient xlink:href="#Crack_Highlight_Gradient" id="Crack_Highlight_Gradient-44" x1="82.27" x2="82.27" y1="7.35" y2="37.4"/>
    <linearGradient xlink:href="#Crack_Highlight_Gradient" id="Crack_Highlight_Gradient-45" x1="98.27" x2="98.27" y1="7.35" y2="37.4"/>
    <linearGradient xlink:href="#Crack_Highlight_Gradient" id="Crack_Highlight_Gradient-46" x1="109.95" x2="109.95" y1="7.35" y2="37.4"/>
    <linearGradient xlink:href="#Crack_Highlight_Gradient" id="Crack_Highlight_Gradient-47" x1="146.19" x2="146.19" y1="7.35" y2="37.4"/>
    <linearGradient xlink:href="#Crack_Highlight_Gradient" id="Crack_Highlight_Gradient-48" x1="174.43" x2="174.43" y1="7.35" y2="37.4"/>
    <linearGradient xlink:href="#Crack_Highlight_Gradient" id="Crack_Highlight_Gradient-49" x1="186.36" x2="186.36" y1="7.35" y2="37.4"/>
    <linearGradient xlink:href="#Crack_Highlight_Gradient" id="Crack_Highlight_Gradient-50" x1="272.58" x2="272.58" y1="7.35" y2="37.4"/>
    <linearGradient xlink:href="#Crack_Highlight_Gradient" id="Crack_Highlight_Gradient-51" x1="293.29" x2="293.29" y1="7.35" y2="37.4"/>
    <linearGradient xlink:href="#Crack_Highlight_Gradient" id="Crack_Highlight_Gradient-52" x1="252.24" x2="252.24" y1="7.33" y2="37.25"/>
    <linearGradient xlink:href="#Crack_Highlight_Gradient" id="Crack_Highlight_Gradient-53" x1="251.86" x2="251.86" y1="7.35" y2="37.4"/>
    <linearGradient xlink:href="#Crack_Highlight_Gradient" id="Crack_Highlight_Gradient-54" x1="260.55" x2="260.55" y1="7.35" y2="37.4"/>
    <linearGradient xlink:href="#Crack_Highlight_Gradient" id="Crack_Highlight_Gradient-55" x1="179.31" x2="179.31" y1="7.38" y2="37.3"/>
    <linearGradient xlink:href="#Crack_Highlight_Gradient" id="Crack_Highlight_Gradient-56" x1="213.76" x2="213.76" y1="7.35" y2="37.4"/>
    <linearGradient xlink:href="#Crack_Highlight_Gradient" id="Crack_Highlight_Gradient-57" x1="218.99" x2="218.99" y1="7.35" y2="37.4"/>
    <linearGradient xlink:href="#Crack_Highlight_Gradient" id="Crack_Highlight_Gradient-58" x1="223.12" x2="223.12" y1="7.35" y2="37.4"/>
    <linearGradient xlink:href="#Crack_Highlight_Gradient" id="Crack_Highlight_Gradient-59" x1="223.04" x2="223.04" y1="7.35" y2="37.4"/>
    <linearGradient xlink:href="#Crack_Highlight_Gradient" id="Crack_Highlight_Gradient-60" x1="215.59" x2="215.59" y1="7.35" y2="37.4"/>
    <linearGradient xlink:href="#Crack_Highlight_Gradient" id="Crack_Highlight_Gradient-61" x1="128.21" x2="128.21" y1="7.35" y2="37.4"/>
    <linearGradient xlink:href="#Crack_Highlight_Gradient" id="Crack_Highlight_Gradient-62" x1="160.3" x2="160.3" y1="7.35" y2="37.4"/>
    <linearGradient xlink:href="#Crack_Highlight_Gradient" id="Crack_Highlight_Gradient-63" x1="199.05" x2="199.05" y1="7.35" y2="37.4"/>
    <linearGradient xlink:href="#Crack_Highlight_Gradient" id="Crack_Highlight_Gradient-64" x1="10.37" x2="10.37" y1="7.35" y2="37.4"/>
    <linearGradient xlink:href="#Crack_Highlight_Gradient" id="Crack_Highlight_Gradient-65" x1="22.07" x2="22.07" y1="7.35" y2="37.4"/>
    <linearGradient xlink:href="#Crack_Highlight_Gradient" id="Crack_Highlight_Gradient-66" x1="34.47" x2="34.47" y1="7.35" y2="37.4"/>
    <linearGradient xlink:href="#Crack_Highlight_Gradient" id="Crack_Highlight_Gradient-67" x1="254.81" x2="254.81" y1="7.35" y2="37.4"/>
    <linearGradient xlink:href="#Crack_Highlight_Gradient" id="Crack_Highlight_Gradient-68" x1="263.76" x2="263.76" y1="7.35" y2="37.4"/>
    <linearGradient xlink:href="#Crack_Highlight_Gradient" id="Crack_Highlight_Gradient-69" x1="241.72" x2="241.72" y1="7.35" y2="37.4"/>
    <linearGradient xlink:href="#Crack_Highlight_Gradient" id="Crack_Highlight_Gradient-70" x1="127.42" x2="127.42" y1="7.35" y2="37.4"/>
    <linearGradient xlink:href="#Crack_Highlight_Gradient" id="Crack_Highlight_Gradient-71" x1="152.87" x2="152.87" y1="7.35" y2="37.4"/>
    <linearGradient xlink:href="#Crack_Highlight_Gradient" id="Crack_Highlight_Gradient-72" x1="187.33" x2="187.33" y1="7.35" y2="37.4"/>
    <linearGradient xlink:href="#Crack_Highlight_Gradient" id="Crack_Highlight_Gradient-73" x1="220.88" x2="220.88" y1="7.35" y2="37.4"/>
    <style>
      .cls-1{fill:#3d3938}.cls-3{fill:#998f8b}.cls-4{fill:#262423}.cls-5{fill:#6b6562}
    </style>
  </defs>
  <path d="m294.21 18.6 5.41-9-3-9.63H90.43l-1 7L87.55 0h-48l-1.71 6.62h-4l-1 3.66L27.59 0H11.94L0 38.31l9.51 13h15.64l1.91-7.23h6.32l4.24 7.23h48.27L87 43l2.67 8.39H251l6.53-13.53h5.9l5.49-10.73 5.86 24.26H291l9-13.06Zm-139.36 9.09v-4.58h13.88l.14 4.58Z"/>
  <path d="M62.62 37.82H49.83l5.47 10.87h12.12l-4.8-10.87zm4.27 0 4.57 10.87h12.12l-3.91-10.87H66.89zm38.36 0 2.57 10.87h28.28l-1.01-10.87h-29.84zm63.95 0-.78 10.87h-28.28l-.78-10.87h29.84zm4.26 0h12.79l-1.67 10.87h-12.12l1-10.87zm17.05 0-1.89 10.87h12.12l2.56-10.87h-12.79zm17.05 0-2.78 10.87h12.12l3.45-10.87h-12.79zm17.06 0-3.69 10.87h12.12l4.36-10.87h-12.79zm17.05 0-4.58 10.87h12.12l5.25-10.87h-12.79zm42.63 0-6.81 10.87h12.12l7.48-10.87H284.3zm-196.1 0 3.46 10.87h12.12l-2.79-10.87H88.2zm-55.42 0h12.79l5.69 10.87H39.14l-6.36-10.87zM10.87 48.69 2.94 37.82h12.79l7.25 10.87H10.87z" class="cls-1"/>
  <path fill="url(#Front_Face_Gradient)" d="M36.46 23.11h-4.13l-1.88 7.24h-8.39l2-7.24h-4.13l-4.2 14.71H2.94l11-35.16h11.82l-1.89 6.62h4L26 16.09h8.14l1.77-6.81h4l1.66-6.62h11.87l-7.87 35.16H32.78ZM57.39 2.66h11.87l-6.64 35.16H49.83Zm51.41 0h27.68l-.26 6.62h-16l-.51 6.81H136l-.28 7h-16.58l-.54 7.24h16.79l-.3 7.47h-29.84Zm31.64 0h27.68l.2 6.62h-16l-.09 21.07H169l.23 7.47h-29.87Zm49 20.45h-4.14l1 14.71h-12.84l-1.39-35.16h27.68l1.36 13.43H197l.32 3.49h4.1l1.84 18.24h-12.75Zm-5-13.83.45 6.81h4.07l-.51-6.81Zm51-6.62H263l1.6 6.62h-16.03l1.43 6.81h16.29l1.69 7h-16.56l3 14.71h-12.75Zm41.32 6.62h-8L267 2.66h27.68l2.06 6.62h-8l8.39 28.54H284.3ZM89.71 26.7h-4.16l1-7.12h-4.1l-2.78 18.24H66.89l6.32-35.16h11.86l-1 6.62h4l-1 6.81h4.08L93 2.66h11.87L101 37.82H88.2Zm141.68-24h-27.68l3.85 35.16h12.79l-1.51-11.16H223l1.61 11.12h12.79Zm-9.33 12.86h2l1 6.41h-2.74l-.32-2.39h-4.1l.32 2.35h-2.75l-.83-6.41h2l-.23-1.72h-4.73l-.56-4.52h5.35l.54 4h4.05l-.58-4h5.35l.71 4.52h-4.73Z"/>
  <path d="m57.04 30.35-1.52 7.47H54.1l1.54-7.47h1.4zm158.57 3.7.48 3.77h-1.42l-.47-3.77h1.41z" class="cls-3"/>
  <path d="m55.52 37.82 1.61 3.39h-1.4l-1.63-3.39h1.42z" class="cls-4"/>
  <path d="m73.2 34.05-.63 3.77h-1.42l.64-3.77h1.41z" class="cls-3"/>
  <path d="m96.73 37.82.94 3.39h-1.4l-.96-3.39h1.42zm14.21 0 1.39 6.66h-1.38l-1.43-6.66h1.42zm-90.76 6.66-.73-1.08h-4.14l.74 1.08h4.13zm223.29-1.08h-4.15l-.45 1.08h4.12l.48-1.08zm-49.78 0h-4.15l-.19 1.08h4.12l.22-1.08zm-68.07-2.19h1.4l-.45-3.39h-1.42l.47 3.39zm154.51 3.27.67-1.08h4.15l-.7 1.08h-4.12zm-231.07 0-.57-1.08h-4.15l.59 1.08h4.13z" class="cls-4"/>
  <path d="m209.81 20.75-.14-1.17h-4.11l.13 1.17h4.12zM43.92 14.94l1.62-6.78H40.2l-.28 1.12h4.01l-1.36 5.66h-8.13l-.3 1.15h16.29l.26-1.15h-6.77zM288.07 2.66h-1.32l1.95 6.62h1.33l-1.96-6.62zm-29.95 13.43h-1.36l1.55 7.02h1.38l-1.57-7.02zm-72.36 14.26-.08-1.22h-5.59l.48 8.69h1.42l-.43-7.47h4.2zM12.18 8.16h12.01l-.32 1.12H11.83l.35-1.12zm56.49 19.75.22-1.21h12.49l-.18 1.21H68.67zm212.98 0-.33-1.21h12.5l.35 1.21h-12.52zm-57.94 3.67-.18-1.23h12.6l.21 1.23h-12.63zM98.04 26.7h-8.33l-.16 1.21h6.96l-1.2 9.91h1.42l1.31-11.12zm82.71-10.61-.07-1.15h-2.71l-.63-12.28h-1.31l.43 8.87h-4.04l.05 1.13h4.04l.17 3.43h4.07z" class="cls-3"/>
  <path d="m180.75 16.09-.07-1.15h-2.71l-.63-12.28h-1.31l.43 8.87h-4.04l.05 1.13h4.04l.17 3.43h4.07zM17.86 30.35l.35-1.22h-6.98l1.81-6.02H7.52l-.37 1.19h4.15l-2.95 9.75h8.46l.35-1.24h-7.03l.74-2.46h6.99zM256.6 9.28l-1-4.43h-6.62l-.45-2.19h-1.32l.67 3.29h6.64l.74 3.33h1.34zm-148.69 2.25h4.03l-.11 1.13h-4.04l.12-1.13zm-1.78 17.6-.12 1.22h4.19l-.68 7.47h1.42l.77-8.69h-5.58zM84.23 8.16h-4l-.18 1.12h4.01l.17-1.12zm20.01 0H92.23l-.15 1.12h12.04l.12-1.12z" class="cls-3"/>
  <path d="M216.09 37.82h-1.42l-1.94 6.66h1.38l1.98-6.66z" class="cls-4"/>
  <path d="m189.86 29.13.1 1.22h4.19l-.1-1.22h-4.19zm-49.73-16.47-.04 1.14h4.06l-.29 12.9h-4.16l-.04 1.21h5.57l.27-14.11h6.75l.01-1.14h-12.13zm105.79 17.69-1.39-7.24h-5.51l.22 1.19h4.14l1.14 6.05h1.4zm-92.35 7.47h-1.42l.01-3.15h1.41v3.15z" class="cls-3"/>
  <path d="M153.58 41.21h-1.4l-.03-3.39h1.42l.01 3.39zm27.95 0h-1.39l.43-3.39h1.42l-.46 3.39z" class="cls-4"/>
  <path d="m62.88 8.16-.9 4.5h1.35L64 9.28h4.01l.21-1.12h-5.34zm66.91 22.19-.12 2.46h-4.22l-.3 5.01h1.42l.21-3.77h4.23l.18-3.7h-1.4z" class="cls-3"/>
  <path d="m168.76 43.94.04-.54h-4.15l-.03.55 4.14-.01zm-96.19-6.12 2.62 6.66h-1.37l-2.67-6.66h1.42z" class="cls-4"/>
  <path d="m13.04 23.11-.18.6H7.34l.18-.6h5.52zm-1.81 6.02.52.61h6.29l.17-.61h-6.98zm-1.1 3.68.52.62h6.33l.18-.62h-7.03zm2.05-24.65h12.01l-.16.56H12.01l.17-.56zm28.02 0-.14.56h5.34l.14-.56H40.2zm3.73 1.12.54.56-1.36 5.68h-8.82l.15-.58h8.13l1.36-5.66zm-.01 5.66.54.58h6.1l.13-.58h-6.77zM11.3 24.3l.51.6-2.76 9.15h-.7l2.95-9.75zm50.68-11.64h.67l.79-3.94h4.67l.11-.56h-5.34l-.9 4.5zm-4.94 17.69-.13.61h-.7l-1.4 6.86h-.71l1.54-7.47h1.4zM80.05 9.28h.67l.08-.56h3.34l.09-.56h-4l-.18 1.12zm12.18-1.12h12.01l-.06.56H92.16l.07-.56zM68.89 26.7h12.49l-.09.61H68.78l.11-.61zm4.31 7.35h-1.41l-.64 3.77h.71l.53-3.15h.71l.1-.62zm16.51-7.35-.08.61h8.34l.07-.61h-8.33zm6.8 1.21.62.61-1.11 9.3h-.71l1.2-9.91zm11.4-16.38-.06.56h4.04l.05-.56h-4.03zm-1.78 17.6-.06.61h5.59l.05-.61h-5.58zm4.07 1.22.65.61-.62 6.86h-.71l.68-7.47zm20.29 0h-.7l-.12 2.46h-4.22l-.3 5.01h.71l.25-4.39h4.23l.15-3.08zm9.62-17.12h12.14l.01-.57h-12.13l-.02.57zm4.04.57.66.57-.26 12.94h-4.87l.02-.61h4.16l.29-12.9zm32.31-2.27h-4.04l.02.56h3.37l.65-.56zm4.29 4.56-.07-1.15h-2.71l-.63-12.28h-.65l.63 12.86h2.72l.03.57h.68zm4.97 13.65-.04-.61h-5.59l.04.61h5.59zm-4.16.61-.66.61.38 6.86h.71l-.43-7.47zm8.3-1.22.05.61h3.49l.05.61h.7l-.1-1.22h-4.19m15.77-8.97-.07-.58h4.11l.14 1.17h-.69l-.07-.59h-3.42zm17.9 10.19h12.6l.1.61h-12.61l-.09-.61zm-9.25 4.32h.7l.4 3.15h.71l-.48-3.77h-1.41l.08.62zm24.85-10.96h4.83l1.26 6.64h.7l-1.39-7.24h-5.51l.11.6zm9.4-21.05h-.66l.56 2.74h6.63l.87 3.88h.67l-1-4.43h-6.62l-.45-2.19zm9.59 13.43h-.68l1.56 7.02h.69l-1.57-7.02zm23.2 10.61h12.5l.18.61h-12.52l-.16-.61zm6.09-24.04 1.96 6.62h.66l-1.96-6.62h-.66zM152.16 34.05v.62h1.41v-.62h-1.41z" class="cls-5"/>
  <path fill="#171615" d="m44.93 44.48-.59-1.08h.7l.29.55 3.45-.01.28.54h-4.13zm9.88-6.66h-.71l1.63 3.39h1.4l-.27-.56h-.7l-1.35-2.83zm41.21 0 .79 2.83h.7l.16.56h-1.4l-.96-3.39h.71zm14.21 0 1.3 6.12.69.01.11.53h-1.38l-1.43-6.66h.71zm15.63 0 .38 2.83h.7l.08.56h-1.4l-.47-3.39h.71zm89.52 0-1.8 6.13-.69-.01-.16.54h1.38l1.98-6.66h-.71zm27.61 6.66.48-1.08h-.69l-.24.55h-3.45l-.22.53h4.12zm37.47-.53h3.45l.35-.55h.69l-.7 1.08h-4.12l.33-.53zM15.31 43.4l.74 1.08h4.13l-.36-.53h-3.45L16 43.4h-.69zm165.97-5.58-.37 2.83h-.7l-.07.56h1.39l.46-3.39h-.71zm-29.1 2.83v.56h1.4v-.56h-1.4zm12.44 3.3-.03.53h4.13l.04-.54-4.14.01zm-92.76-6.13h-.71l2.67 6.66h1.37l-.21-.53-.69-.01-2.43-6.12zm117.58 6.12-.09.54h4.12l.22-1.08H193l-.11.54h-3.45z"/>
  <path d="m16.05 44.48.37.54h4.11l-.35-.54h-4.13zm28.88 0h4.13l.28.54h-4.12l-.29-.54zm10.8-3.27.27.55h1.39l-.26-.55h-1.4zm40.54 0 .15.55h1.4l-.15-.55h-1.4zm14.68 3.27.12.54h1.37l-.11-.54h-1.38zm14.67-3.27.08.55h1.39l-.07-.55h-1.4zm63.73 3.27h4.12l-.1.54h-4.11l.09-.54zm23.38 0-.15.54h1.37l.16-.54h-1.38zm30.26 0-.24.54h-4.11l.23-.54h4.12zm37.14 0-.34.54h4.12l.34-.54h-4.12zm-127.95-3.27.01.55h1.39v-.55h-1.4zm29.35 0-.07.55h-1.39l.07-.55h1.39z" class="cls-5"/>
  <path fill="url(#Crack_Highlight_Gradient)" d="M143.88 26.1h-4.16l-.02.6h4.16l.02-.6z"/>
  <path fill="url(#Crack_Highlight_Gradient-2)" d="M68.89 26.7h12.49l.09-.6H68.99l-.1.6z"/>
  <path fill="url(#Crack_Highlight_Gradient-3)" d="M98.11 26.1H85.64l-.09.6h12.49l.07-.6z"/>
  <path fill="url(#Crack_Highlight_Gradient-4)" d="M293.64 26.1h-12.48l.16.6h12.5l-.18-.6z"/>
  <path fill="url(#Crack_Highlight_Gradient-5)" d="M2.94 37.82h12.79l.18-.64H3.14l-.2.64z"/>
  <path fill="url(#Crack_Highlight_Gradient-6)" d="M10.13 32.81h7.03l.18-.62h-7.03l-.18.62z"/>
  <path fill="url(#Crack_Highlight_Gradient-7)" d="M11.23 29.13h6.98l.17-.61h-6.97l-.18.61z"/>
  <path fill="url(#Crack_Highlight_Gradient-8)" d="M22.06 30.35h8.39l.16-.61h-8.38l-.17.61z"/>
  <path fill="url(#Crack_Highlight_Gradient-9)" d="M32.78 37.82h12.79l.15-.64H32.94l-.16.64z"/>
  <path fill="url(#Crack_Highlight_Gradient-10)" d="M57.16 29.74h-1.4l-.12.61h1.4l.12-.61z"/>
  <path fill="url(#Crack_Highlight_Gradient-11)" d="M73.31 33.43H71.9l-.11.62h1.41l.11-.62z"/>
  <path fill="url(#Crack_Highlight_Gradient-12)" d="M111.77 28.52h-5.58l-.06.61h5.58l.06-.61z"/>
  <path fill="url(#Crack_Highlight_Gradient-13)" d="M129.7 32.19h-4.22l-.03.62h4.22l.03-.62z"/>
  <path fill="url(#Crack_Highlight_Gradient-14)" d="M180.09 29.13h5.59l-.04-.61h-5.58l.03.61z"/>
  <path fill="url(#Crack_Highlight_Gradient-15)" d="M194 28.52h-4.18l.04.61h4.19l-.05-.61z"/>
  <path fill="url(#Crack_Highlight_Gradient-16)" d="m214.12 33.43.08.62h1.41l-.08-.62h-1.41z"/>
  <path fill="url(#Crack_Highlight_Gradient-17)" d="M236.02 29.74h-12.57l.08.61h12.6l-.11-.61z"/>
  <path fill="url(#Crack_Highlight_Gradient-18)" d="m207.49 37.18.07.64h7.11l-.08-.64h-7.1z"/>
  <path fill="url(#Crack_Highlight_Gradient-19)" d="m216.01 37.18.08.64h4.26l-.08-.64h-4.26z"/>
  <path fill="url(#Crack_Highlight_Gradient-20)" d="m224.52 37.18.1.64h12.79l-.11-.64h-12.78z"/>
  <path fill="url(#Crack_Highlight_Gradient-21)" d="m241.55 37.18.12.64h12.79l-.14-.64h-12.77z"/>
  <path fill="url(#Crack_Highlight_Gradient-22)" d="M296.9 37.18h-12.77l.17.64h12.79l-.19-.64z"/>
  <path fill="url(#Crack_Highlight_Gradient-23)" d="m173.44 37.18.02.64h7.11l-.04-.64h-7.09z"/>
  <path fill="url(#Crack_Highlight_Gradient-24)" d="m181.95 37.18.04.64h4.26l-.04-.64h-4.26z"/>
  <path fill="url(#Crack_Highlight_Gradient-25)" d="M139.36 37.82h12.79v-.64h-12.77l-.02.64z"/>
  <path fill="url(#Crack_Highlight_Gradient-26)" d="M153.57 37.18v.64h15.63l-.02-.64h-15.61z"/>
  <path fill="url(#Crack_Highlight_Gradient-27)" d="m190.47 37.18.04.64h12.79l-.06-.64h-12.77z"/>
  <path fill="url(#Crack_Highlight_Gradient-28)" d="M105.25 37.82h4.27l.06-.64h-4.26l-.07.64z"/>
  <path fill="url(#Crack_Highlight_Gradient-29)" d="M110.94 37.82h14.21l.04-.64h-14.2l-.05.64z"/>
  <path fill="url(#Crack_Highlight_Gradient-30)" d="M126.57 37.82h8.52l.03-.64h-8.52l-.03.64z"/>
  <path fill="url(#Crack_Highlight_Gradient-31)" d="M88.2 37.82h7.11l.07-.64h-7.09l-.09.64z"/>
  <path fill="url(#Crack_Highlight_Gradient-32)" d="M96.73 37.82h4.26l.07-.64H96.8l-.07.64z"/>
  <path fill="url(#Crack_Highlight_Gradient-33)" d="M66.89 37.82h4.26l.11-.64H67l-.11.64z"/>
  <path fill="url(#Crack_Highlight_Gradient-34)" d="M72.57 37.82h7.1l.1-.64h-7.09l-.11.64z"/>
  <path fill="url(#Crack_Highlight_Gradient-35)" d="M49.83 37.82h4.27l.13-.64h-4.26l-.14.64z"/>
  <path fill="url(#Crack_Highlight_Gradient-36)" d="M55.52 37.82h7.1l.12-.64h-7.09l-.13.64z"/>
  <path fill="url(#Crack_Highlight_Gradient-37)" d="M209.6 18.99h-4.1l.06.59h4.11l-.07-.59z"/>
  <path fill="url(#Crack_Highlight_Gradient-38)" d="M86.66 18.99h-4.09l-.09.59h4.1l.08-.59z"/>
  <path fill="url(#Crack_Highlight_Gradient-39)" d="M24.35 7.61h-12l-.17.55h12.01l.16-.55z"/>
  <path fill="url(#Crack_Highlight_Gradient-40)" d="M45.67 7.61h-5.33l-.14.55h5.34l.13-.55z"/>
  <path fill="url(#Crack_Highlight_Gradient-41)" d="M43.92 14.94h6.77l.13-.57h-6.76l-.14.57z"/>
  <path fill="url(#Crack_Highlight_Gradient-42)" d="M42.7 14.37h-8.11l-.15.57h8.13l.13-.57z"/>
  <path fill="url(#Crack_Highlight_Gradient-43)" d="M68.32 7.61h-5.33l-.11.55h5.34l.1-.55z"/>
  <path fill="url(#Crack_Highlight_Gradient-44)" d="M84.31 7.61h-3.99l-.09.55h4l.08-.55z"/>
  <path fill="url(#Crack_Highlight_Gradient-45)" d="M92.23 8.16h12.01l.06-.55H92.31l-.08.55z"/>
  <path fill="url(#Crack_Highlight_Gradient-46)" d="M111.99 10.96h-4.03l-.05.57h4.03l.05-.57z"/>
  <path fill="url(#Crack_Highlight_Gradient-47)" d="M152.26 12.09h-12.11l-.02.57h12.13v-.57z"/>
  <path fill="url(#Crack_Highlight_Gradient-48)" d="M176.43 10.96h-4.03l.02.57h4.03l-.02-.57z"/>
  <path fill="url(#Crack_Highlight_Gradient-49)" d="m188.38 9.28-.04-.56h-4.01l.04.56h4.01z"/>
  <path fill="url(#Crack_Highlight_Gradient-50)" d="m268.49 8.72.14.56h8.03l-.15-.56h-8.02z"/>
  <path fill="url(#Crack_Highlight_Gradient-51)" d="m296.72 9.28-.17-.56h-6.68l.16.56h6.69z"/>
  <path fill="url(#Crack_Highlight_Gradient-52)" d="m255.6 4.85-.12-.55h-6.61l.11.55h6.62z"/>
  <path fill="url(#Crack_Highlight_Gradient-53)" d="m255.26 9.28-.13-.56h-6.67l.11.56h6.69z"/>
  <path fill="url(#Crack_Highlight_Gradient-54)" d="m264.62 9.28-.13-.56h-8.02l.13.56h8.02z"/>
  <path fill="url(#Crack_Highlight_Gradient-55)" d="m180.68 14.94-.03-.57h-2.71l.03.57h2.71z"/>
  <path fill="url(#Crack_Highlight_Gradient-56)" d="m216.47 9.28-.07-.56h-5.35l.07.56h5.35z"/>
  <path fill="url(#Crack_Highlight_Gradient-57)" d="m221.06 13.23-.09-.57h-4.04l.08.57h4.05z"/>
  <path fill="url(#Crack_Highlight_Gradient-58)" d="m225.83 9.28-.08-.56h-5.35l.08.56h5.35z"/>
  <path fill="url(#Crack_Highlight_Gradient-59)" d="M222.06 15.52h2.04l-.09-.58h-2.03l.08.58z"/>
  <path fill="url(#Crack_Highlight_Gradient-60)" d="M214.61 15.52h2.03l-.08-.58h-2.03l.08.58z"/>
  <path fill="url(#Crack_Highlight_Gradient-61)" d="M120.17 9.28h16.05l.02-.56h-16.03l-.04.56z"/>
  <path fill="url(#Crack_Highlight_Gradient-62)" d="M168.3 8.72h-16.03v.56h16.05l-.02-.56z"/>
  <path fill="url(#Crack_Highlight_Gradient-63)" d="m201.11 16.09-.06-.57h-4.07l.06.57h4.07z"/>
  <path fill="url(#Crack_Highlight_Gradient-64)" d="M13.21 22.52h-5.5l-.19.59h5.52l.17-.59z"/>
  <path fill="url(#Crack_Highlight_Gradient-65)" d="M24.22 22.52h-4.13l-.16.59h4.13l.16-.59z"/>
  <path fill="url(#Crack_Highlight_Gradient-66)" d="M36.61 22.52h-4.13l-.15.59h4.13l.15-.59z"/>
  <path fill="url(#Crack_Highlight_Gradient-67)" d="m251.3 22.52.12.59h6.89l-.13-.59h-6.88z"/>
  <path fill="url(#Crack_Highlight_Gradient-68)" d="m259.56 22.52.13.59h8.27l-.14-.59h-8.26z"/>
  <path fill="url(#Crack_Highlight_Gradient-69)" d="M244.42 22.52h-5.5l.1.59h5.51l-.11-.59z"/>
  <path fill="url(#Crack_Highlight_Gradient-70)" d="M119.14 23.11h16.54l.02-.59h-16.52l-.04.59z"/>
  <path fill="url(#Crack_Highlight_Gradient-71)" d="M153.57 33.43h-1.41v.62h1.41v-.62z"/>
  <path fill="url(#Crack_Highlight_Gradient-72)" d="m185.24 22.52.04.59h4.13l-.04-.59h-4.13z"/>
  <path fill="url(#Crack_Highlight_Gradient-73)" d="m218.76 26.1.08.6h4.17l-.09-.6h-4.16z"/>
  <path d="m164.59 44.48-.03.54h4.12l.04-.54h-4.13zm-90.77 0 .21.54h1.37l-.21-.54h-1.37z" class="cls-5"/>
  <path d="m20.18 44.48.35.54.81-2.97-.36-.54-.8 2.97zm259.95 0-.34.54-.8-3.16.33-.55.81 3.17z" class="cls-1"/>
</svg>